<svg xmlns="http://www.w3.org/2000/svg" width="24" height="24" viewBox="0 0 24 24" fill="none" stroke="#3B82F6" stroke-width="2" stroke-linecap="round" stroke-linejoin="round">
  <path d="M19 5c-1.5 0-2.8 1.4-3 2-3.5-1.5-11-.3-11 5 0 1.8 0 3 2 5 1.3-2.5 3.5-4.3 5.5-5.3m7.5-5.7c.7-.7.5-1.5-.5-1.5h-2c-2.2 0-4.1.7-5.3 1.5"></path>
  <path d="M9 11.5v.5a2 2 0 0 0 2 2h.5"></path>
  <path d="M13 12c-.5-1-1.5-2-2.5-2s-2 1-2.5 2c-.3 1-.5 2.5 0 3 .5.5 1.5 1 2.5 1 1 0 2-.5 2.5-1 .5-.5.5-2 0-3z"></path>
  <path d="M14 7.5c1.5 1 3.5 2.5 3.5 4 0 .5-.5 1-1 1"></path>
  <path d="M16.5 12.5c1 1 2 2.5 2 3.5 0 .5-.5 1-1 1"></path>
  <path d="M3.5 12.5C2 11 1 9 1 8c0-.5.5-1 1-1"></path>
  <path d="M7 17c-1 1-2 2.5-2 3.5 0 .5.5 1 1 1"></path>
</svg>